<?xml version="1.0" encoding="utf-8"?>
<!-- Generator: Adobe Illustrator 23.0.1, SVG Export Plug-In . SVG Version: 6.00 Build 0)  -->
<svg version="1.1" id="Ebene_1" xmlns="http://www.w3.org/2000/svg" xmlns:xlink="http://www.w3.org/1999/xlink" x="0px" y="0px"
	 viewBox="0 0 24 24" style="enable-background:new 0 0 24 24;" xml:space="preserve">
<style type="text/css">
	.st0{fill:#D52B1E;}
	.st1{fill:#A633B2;}
	.st2{fill:#FFFFFF;}
	.st3{fill:none;stroke:#000000;stroke-width:1.5;}
	.st4{stroke:#000000;stroke-width:1.25;stroke-miterlimit:10;}
	.st5{fill:#666666;}
	.st6{fill:none;stroke:#000000;stroke-width:2;stroke-miterlimit:10;}
	.st7{stroke:#000000;stroke-width:0.2835;stroke-miterlimit:10;}
	.st8{fill:none;stroke:#000000;stroke-width:1.9996;stroke-miterlimit:10;}
	.st9{fill:none;stroke:#000000;stroke-width:1.25;}
	.st10{fill:#00549F;}
	.st11{fill:none;stroke:#000000;stroke-width:1.5;stroke-miterlimit:10;}
	.st12{fill:none;stroke:#000000;stroke-miterlimit:10;}
	.st13{fill:#00FF21;}
	.st14{fill:#FF3333;}
	.st15{fill:#FFAF48;}
	.st16{fill:#F7E6A1;}
	.st17{fill:#556080;}
	.st18{fill:none;stroke:#000000;stroke-width:1.25;stroke-miterlimit:10;}
	.st19{fill:none;stroke:#000000;stroke-width:1.2;stroke-miterlimit:10;}
	.st20{fill:none;stroke:#000000;stroke-width:1.3;}
</style>
<g>
	<polygon points="18.47,6.94 17.04,5.5 12,10.56 6.96,5.5 5.53,6.94 10.57,12 5.53,17.06 6.96,18.5 12,13.44 17.04,18.5 
		18.47,17.06 13.43,12 	"/>
	<g>
		<path d="M12,1.25c5.93,0,10.75,4.82,10.75,10.75c0,5.93-4.82,10.75-10.75,10.75S1.25,17.93,1.25,12C1.25,6.07,6.07,1.25,12,1.25
			 M12,0C5.37,0,0,5.37,0,12c0,6.63,5.37,12,12,12c6.63,0,12-5.37,12-12C24,5.37,18.63,0,12,0L12,0z"/>
	</g>
</g>
</svg>
