<svg viewBox="0 0 24 24" xmlns="http://www.w3.org/2000/svg">
  <g transform="translate(4,4)">
	
	<path fill="#D52B1E" d="M6.745,12.589c-0.227,0.122-0.497,0.247-0.684,0.247c-0.318,0-0.501-0.164-0.501-0.452
		c0-0.207,0.14-0.375,0.595-0.622c1.549-0.904,2.594-2.272,2.594-3.721c0-0.825-0.227-1.119-0.681-1.119
		c-0.135,0-0.32,0.219-0.636,0.219H7.157C6.102,7.143,5.333,6.264,5.333,5.23c0-1.152,0.958-2.006,2.28-2.006
		c1.777,0,3.053,1.373,3.053,3.43C10.666,9.215,9.203,11.27,6.745,12.589"/>
</g>
<g fill="#D52B1E" transform="translate(12,12)">
  
  <circle cx="10" cy="0" r="1.25" >
    <animate attributeType="XML" attributeName="r" from="1.25" to="0"
        dur="1.6s"
		begin="0s"
		repeatCount="indefinite"/>
	</circle>
  <circle cx="9.24" cy="3.83" r="1.25" >
    <animate attributeType="XML" attributeName="r" from="1.25" to="0"
        dur="1.6s"
		begin="0.1s"
		repeatCount="indefinite"/>
	</circle>
	<circle cx="7.07" cy="7.07" r="1.25" >
    <animate attributeType="XML" attributeName="r" from="1.25" to="0"
        dur="1.6s"
		begin="0.2s"
		repeatCount="indefinite"/>
	</circle>
	<circle cx="3.83" cy="9.24" r="1.25" >
    <animate attributeType="XML" attributeName="r" from="1.25" to="0"
        dur="1.6s"
		begin="0.3s"
		repeatCount="indefinite"/>
	</circle>
	<circle cx="0" cy="10" r="1.25" >
    <animate attributeType="XML" attributeName="r" from="1.25" to="0"
        dur="1.6s"
		begin="0.4s"
		repeatCount="indefinite"/>
	</circle>
	<circle cx="-3.83" cy="9.24" r="1.25" >
    <animate attributeType="XML" attributeName="r" from="1.25" to="0"
        dur="1.6s"
		begin="0.5s"
		repeatCount="indefinite"/>
	</circle>
	<circle cx="-7.07" cy="7.07" r="1.25" >
    <animate attributeType="XML" attributeName="r" from="1.25" to="0"
        dur="1.6s"
		begin="0.6s"
		repeatCount="indefinite"/>
	</circle>
	<circle cx="-9.24" cy="3.83" r="1.25" >
    <animate attributeType="XML" attributeName="r" from="1.25" to="0"
        dur="1.6s"
		begin="0.7s"
		repeatCount="indefinite"/>
	</circle>
	<circle cx="-10" cy="0" r="1.25" >
    <animate attributeType="XML" attributeName="r" from="1.25" to="0"
        dur="1.6s"
		begin="0.8s"
		repeatCount="indefinite"/>
	</circle>
	<circle cx="-9.24" cy="-3.83" r="1.25" >
    <animate attributeType="XML" attributeName="r" from="1.25" to="0"
        dur="1.6s"
		begin="0.9s"
		repeatCount="indefinite"/>
	</circle>
  <circle cx="-7.07" cy="-7.07" r="1.25" >
    <animate attributeType="XML" attributeName="r" from="1.25" to="0"
        dur="1.6s"
		begin="1s"
		repeatCount="indefinite"/>
	</circle>
	<circle cx="-3.83" cy="-9.24" r="1.25" >
    <animate attributeType="XML" attributeName="r" from="1.25" to="0"
        dur="1.6s"
		begin="1.1s"
		repeatCount="indefinite"/>
	</circle>
	<circle cx="0" cy="-10" r="1.25" >
    <animate attributeType="XML" attributeName="r" from="1.25" to="0"
        dur="1.6s"
		begin="1.2s"
		repeatCount="indefinite"/>
	</circle>
	<circle cx="3.83" cy="-9.24" r="1.25" >
    <animate attributeType="XML" attributeName="r" from="1.25" to="0"
        dur="1.6s"
		begin="1.3s"
		repeatCount="indefinite"/>
	</circle>
	<circle cx="7.07" cy="-7.07" r="1.25" >
    <animate attributeType="XML" attributeName="r" from="1.25" to="0"
        dur="1.6s"
		begin="1.4s"
		repeatCount="indefinite"/>
	</circle>
	<circle cx="9.24" cy="-3.83" r="1.25" >
    <animate attributeType="XML" attributeName="r" from="1.25" to="0"
        dur="1.6s"
		begin="1.5s"
		repeatCount="indefinite"/>
	</circle>
		  </g>
</svg>