<?xml version="1.0" encoding="utf-8"?>
<!-- Generator: Adobe Illustrator 23.0.3, SVG Export Plug-In . SVG Version: 6.00 Build 0)  -->
<svg version="1.1" id="Ebene_1" xmlns="http://www.w3.org/2000/svg" xmlns:xlink="http://www.w3.org/1999/xlink" x="0px" y="0px"
	 viewBox="0 0 248.959 50" enable-background="new 0 0 248.959 50" xml:space="preserve">
<g>
	<path fill="#D52B1E" d="M117.809,18.398c-0.396,0.216-0.873,0.432-1.189,0.432c-0.555,0-0.873-0.287-0.873-0.788
		c0-0.361,0.238-0.648,1.031-1.079c2.697-1.581,4.522-3.961,4.522-6.476c0-1.438-0.397-2.185-1.19-2.185
		c-0.236,0-0.557,0.071-1.111,0.144h-0.477c-1.823,0-3.172-1.292-3.172-3.086c0-2.01,1.666-3.375,3.966-3.375
		c3.093,0,5.314,2.441,5.314,6.031C124.63,12.467,122.092,16.099,117.809,18.398"/>
	<path fill="#00549F" d="M60.641,36.004c-2.353,1.938-4.706,2.758-7.042,2.768c-3.942,0.012-6.476-2.461-6.476-6.26V15.669
		c0-0.856-0.226-1.016-1.127-1.016h-0.338l-0.788,0.053h-0.17c-0.787,0-1.071-0.213-1.071-0.642c0-0.428,0.284-0.694,0.901-1.016
		l1.747-0.856c1.408-0.694,3.55-2.62,4.677-4.118l0.674-0.909c0.338-0.482,0.621-0.695,1.016-0.695c0.449,0,0.732,0.374,0.732,0.908
		v3.8c0,1.122,0.224,1.336,1.52,1.336h5.039c1.073,0,1.355,0.214,1.355,1.07c0,0.802-0.282,1.069-1.184,1.069H54.5
		c-1.013,0-1.125,0.108-1.125,1.338v14.381c0,3.744,1.014,5.242,3.492,5.242c1.127,0,1.915-0.201,3.66-1.27
		c0.226-0.16,0.508-0.213,0.621-0.213c0.281,0,0.507,0.213,0.507,0.48C61.655,35.041,61.305,35.457,60.641,36.004"/>
	<path fill="#00549F" d="M77.691,25.717c0-0.426-0.17-0.639-0.619-0.639c-0.619,0-1.916,0.426-3.379,1.175
		c-2.705,1.338-3.719,2.729-3.719,5.029c0,2.404,1.014,3.797,2.702,3.797c3.043,0,5.015-2.354,5.015-6.045V25.717z M86.568,36.631
		c-1.692,1.338-3.27,2.033-4.621,2.033c-1.804,0-3.044-0.91-4.168-3.104c-0.508-0.908-0.62-1.07-0.847-1.07
		c-0.112,0-0.281,0.107-0.45,0.215L75.637,35.4c-2.647,2.193-5.633,3.371-7.717,3.371c-2.762,0-4.619-1.926-4.619-4.816
		c0-1.656,0.732-3.422,1.914-4.6c1.635-1.551,2.987-2.353,7.719-4.331c1.577-0.696,2.535-1.071,2.873-1.229
		c1.239-0.483,1.465-0.749,1.465-2.034v-3.744c0-3.369-0.902-4.759-2.986-4.759c-2.421,0-4.111,1.496-5.295,4.759
		c-0.62,1.604-2.535,2.782-4.562,2.782c-0.79,0-1.297-0.429-1.297-1.07c0-2.086,2.873-5.189,6.142-6.579
		c2.028-0.856,4.28-1.283,6.702-1.283c4.678,0,6.931,1.337,6.931,4.171v15.941c0,2.406,0.449,3.262,1.858,3.262
		c0.619,0,1.184-0.215,1.745-0.643c0.281-0.16,0.452-0.32,0.506-0.373c0.169-0.107,0.341-0.107,0.453-0.107
		c0.337,0,0.562,0.213,0.562,0.48C88.03,35.188,87.58,35.881,86.568,36.631"/>
	<path fill="#00549F" d="M115.039,13.657l-1.207,0.163c-1.65,0.217-2.584,1.191-3.902,4.065l-9.18,20.164
		c-0.44,0.977-0.549,1.137-0.988,1.137c-0.44,0-0.661-0.217-0.99-0.975l-8.575-20.435c-1.429-3.36-1.925-3.901-4.177-4.01
		c-0.605-0.056-0.881-0.271-0.881-0.759c0-0.543,0.385-0.705,1.539-0.705c0.441,0,0.88,0.055,1.377,0.055
		c1.043,0.053,3.076,0.162,4.891,0.162c1.759,0,3.133-0.055,4.121-0.162c0.606-0.055,1.102-0.055,1.54-0.055
		c0.88,0,1.209,0.162,1.209,0.649c0,0.597-0.44,0.814-1.867,0.923c-1.32,0.109-2.034,0.648-2.034,1.517
		c0,0.542,0.164,1.192,0.494,2.006l5.605,13.498l4.836-10.624c0.881-1.952,1.319-3.417,1.319-4.282c0-1.41-0.823-2.061-2.581-2.114
		c-1.814-0.055-2.089-0.164-2.089-0.814c0-0.541,0.327-0.758,1.427-0.758c0.332,0,0.717,0.055,1.102,0.055
		c1.318,0.108,2.527,0.162,3.626,0.162c1.375,0,2.694-0.055,3.903-0.217c0.495-0.054,0.934-0.109,1.265-0.109
		c0.715,0,0.987,0.217,0.987,0.705C115.809,13.333,115.536,13.604,115.039,13.657"/>
	<path fill="#00549F" d="M0,26.088c0,7.602,6.219,13.336,14.466,13.336c3.569,0,7.046-1.184,9.534-3.252l0.002-0.002
		c0.801-0.685,1.189-1.256,1.189-1.746c0-0.412-0.338-0.773-0.722-0.773c-0.221,0-0.482,0.137-0.72,0.375
		c-1.355,1.104-4.218,1.979-6.504,1.979c-5.6,0-10.24-4.855-10.563-11.05v-0.578c0-5.754,3.888-10.994,8.156-10.994
		c1.487,0,2.11,0.612,3.921,3.028c2.197,2.88,2.762,3.498,3.732,3.498c1.027,0,1.896-1.923,1.896-4.198
		c0-2.307-3.633-3.982-8.64-3.982C7.064,11.727,0,18.169,0,26.088"/>
	<path fill="#00549F" d="M27.232,12.616h0.931c0.465,0.053,0.93,0.053,1.397,0.107c1.917,0.106,2.848,0.161,4.128,0.161
		c1.278,0,2.5-0.056,4.245-0.161l1.395-0.107h0.874c0.812,0,1.104,0.16,1.104,0.696c0,0.534-0.465,0.748-1.919,0.962
		c-2.442,0.319-2.616,0.589-2.616,4.171V21.4c0,2.942,0.523,3.69,2.791,3.795c0.757,0.054,1.164,0.319,1.164,0.749
		c0,0.427-0.297,0.681-0.99,0.91c-2.828,0.938-4.932,2.094-6.486,3.346l-1.131,0.832c-0.175,0.162-0.465,0.267-0.698,0.267
		c-0.581,0-0.697-0.32-0.697-1.976V18.445c0-3.582-0.232-3.851-2.676-4.171c-1.452-0.214-1.86-0.428-1.86-0.962
		C26.185,12.776,26.418,12.616,27.232,12.616"/>
	<path fill="#00549F" d="M126.922,38.818h-0.93c-0.465-0.055-0.932-0.055-1.396-0.109c-1.919-0.105-2.85-0.16-4.128-0.16
		c-1.28,0-2.501,0.055-4.245,0.16l-1.396,0.109h-0.873c-0.812,0-1.104-0.162-1.104-0.697c0-0.533,0.465-0.748,1.92-0.961
		c2.441-0.322,2.615-0.59,2.615-4.172v-4.268c0-2.943-0.522-3.692-2.791-3.795c-0.756-0.054-1.164-0.321-1.164-0.749
		c0-0.428,0.299-0.682,0.99-0.91c2.828-0.938,4.933-2.094,6.487-3.346l1.13-0.833c0.176-0.161,0.465-0.267,0.699-0.267
		c0.579,0,0.696,0.32,0.696,1.978v12.189c0,3.582,0.233,3.85,2.677,4.172c1.451,0.213,1.858,0.428,1.858,0.961
		C127.968,38.656,127.736,38.818,126.922,38.818"/>
	<path fill="#D52B1E" d="M37.692,31.17c0.392-0.217,0.863-0.436,1.177-0.436c0.549,0,0.863,0.291,0.863,0.797
		c0,0.361-0.235,0.652-1.02,1.086c-2.67,1.594-4.475,3.992-4.475,6.527c0,1.449,0.392,1.748,1.177,1.748
		c0.234,0,0.551-0.072,1.1-0.146h0.472c1.805,0,3.139,1.305,3.139,3.113c0,2.029-1.648,3.406-3.924,3.406
		c-3.062,0-5.26-2.463-5.26-6.084C30.941,36.695,33.452,33.484,37.692,31.17"/>
	<g>
		<path fill="#D52B1E" d="M138.234,20.256c0-3.864-0.166-6.349-0.221-8.446h3.975l0.221,3.809h0.11
			c1.601-2.981,4.085-4.306,6.9-4.306c5.245,0,8.944,5.134,8.944,13.691c0,9.826-4.693,14.023-9.551,14.023
			c-2.871,0-4.859-1.546-5.853-3.478h-0.11v13.69h-4.416V20.256z M142.65,28.371c0,0.773,0.055,1.49,0.221,2.153
			c0.828,3.644,3.092,4.858,5.023,4.858c4.031,0,5.797-4.638,5.797-10.269c0-5.465-1.821-10.103-5.797-10.103
			c-2.373,0-4.526,2.429-5.023,5.245c-0.11,0.663-0.221,1.325-0.221,2.043V28.371z"/>
		<path fill="#D52B1E" d="M165.558,7.117c-1.601,0-2.761-1.27-2.761-3.036s1.215-3.036,2.816-3.036c1.711,0,2.815,1.27,2.871,3.036
			c0,1.767-1.16,3.036-2.871,3.036H165.558z M163.404,38.529V11.81h4.473v26.72H163.404z"/>
		<path fill="#D52B1E" d="M189.57,37.756c-1.049,0.607-3.091,1.215-5.52,1.215c-6.57,0-10.986-4.969-10.986-13.581
			c0-7.895,4.472-14.022,11.869-14.022c1.877,0,3.754,0.497,4.748,1.049l-0.939,3.533c-0.773-0.386-2.098-0.939-3.919-0.939
			c-4.858,0-7.231,4.914-7.231,10.269c0,6.238,2.926,9.992,7.287,9.992c1.656,0,2.926-0.386,4.029-0.883L189.57,37.756z"/>
		<path fill="#D52B1E" d="M198.235,24.176h0.11c0.553-1.049,1.104-2.098,1.711-3.037l6.184-9.33h4.969l-8.115,11.151l9.054,15.568
			h-5.134l-6.957-12.697l-1.821,2.595v10.103h-4.417V-0.005h4.417V24.176z"/>
		<path fill="#D52B1E" d="M217.992,25.721c0.055,7.673,3.588,9.716,7.231,9.716c2.43,0,4.141-0.496,5.41-1.159l0.773,3.257
			c-1.546,0.773-4.086,1.436-6.901,1.436c-7.011,0-10.875-5.355-10.875-13.47c0-8.446,4.085-14.188,10.213-14.188
			c6.569,0,8.777,6.404,8.777,12.035c0,1.049-0.055,1.767-0.11,2.374H217.992z M228.315,22.464c0.056-4.582-1.711-7.784-4.858-7.784
			c-3.533,0-5.189,4.196-5.41,7.784H228.315z"/>
		<path fill="#D52B1E" d="M237.643,19.207c0-2.54-0.111-5.245-0.222-7.397h3.92l0.221,4.527h0.166
			c0.993-2.871,3.478-5.024,6.183-5.024c0.442,0,0.718,0.055,1.049,0.11v4.417c-0.331-0.055-0.662-0.055-1.104-0.055
			c-2.982,0-5.135,2.484-5.631,5.742c-0.11,0.718-0.166,1.546-0.166,2.374v14.63h-4.416V19.207z"/>
	</g>
</g>
</svg>
