<?xml version="1.0" encoding="utf-8"?>
<!-- Generator: Adobe Illustrator 23.0.1, SVG Export Plug-In . SVG Version: 6.00 Build 0)  -->
<svg version="1.1" id="Ebene_1" xmlns="http://www.w3.org/2000/svg" xmlns:xlink="http://www.w3.org/1999/xlink" x="0px" y="0px"
	 viewBox="0 0 24 24" style="enable-background:new 0 0 24 24;" xml:space="preserve">
<style type="text/css">
	.st0{fill:#D52B1E;}
	.st1{fill:#A633B2;}
	.st2{fill:#FFFFFF;}
	.st3{fill:none;stroke:#000000;stroke-width:1.5;}
	.st4{stroke:#000000;stroke-width:1.25;stroke-miterlimit:10;}
	.st5{fill:#666666;}
	.st6{fill:none;stroke:#000000;stroke-width:2;stroke-miterlimit:10;}
	.st7{stroke:#000000;stroke-width:0.2835;stroke-miterlimit:10;}
	.st8{fill:none;stroke:#000000;stroke-width:1.9996;stroke-miterlimit:10;}
	.st9{fill:none;stroke:#000000;stroke-width:1.25;}
	.st10{fill:#00549F;}
	.st11{fill:none;stroke:#000000;stroke-width:1.5;stroke-miterlimit:10;}
	.st12{fill:none;stroke:#000000;stroke-miterlimit:10;}
	.st13{fill:#00FF21;}
	.st14{fill:#FF3333;}
	.st15{fill:#FFAF48;}
	.st16{fill:#F7E6A1;}
	.st17{fill:#556080;}
	.st18{fill:none;stroke:#000000;stroke-width:1.25;stroke-miterlimit:10;}
	.st19{fill:none;stroke:#000000;stroke-width:1.2;stroke-miterlimit:10;}
	.st20{fill:none;stroke:#000000;stroke-width:1.3;}
</style>
<g>
	<g>
		<path class="st1" d="M12,24c6.63,0,12-5.37,12-12c0-6.63-5.37-12-12-12C5.37,0,0,5.37,0,12C0,18.63,5.37,24,12,24L12,24z"/>
		<path class="st2" d="M13.14,13.95c0.12-0.3,0.42-0.75,0.92-1.25c0.96-0.97,1.58-1.75,1.87-2.31c0.29-0.56,0.44-1.16,0.44-1.78
			c0-1.22-0.42-2.25-1.25-3.06C14.29,4.73,13.25,4.32,12,4.32c-1.23,0-2.25,0.41-3.06,1.22C8.13,6.35,7.69,7.39,7.63,8.65l2.14,0.32
			c0.29-1.66,1.06-2.49,2.31-2.49c0.58,0,1.06,0.19,1.44,0.57c0.38,0.38,0.57,0.86,0.57,1.45c0,0.36-0.07,0.67-0.22,0.94
			c-0.15,0.27-0.59,0.77-1.33,1.5c-0.66,0.65-1.11,1.24-1.34,1.78c-0.23,0.54-0.34,1.34-0.34,2.21l0.01,0.74h2.12
			C12.97,14.68,13.03,14.26,13.14,13.95L13.14,13.95z M13.49,19.68v-2h-3v2H13.49L13.49,19.68z"/>
	</g>
</g>
</svg>
