<svg xmlns="http://www.w3.org/2000/svg" xmlns:xlink="http://www.w3.org/1999/xlink" width="24" height="23.986" viewBox="0 0 24 23.986"><defs><style>.a,.c{fill:none;}.b{clip-path:url(#a);}.c{stroke:#000;stroke-width:1.25px;}</style><clipPath id="a"><rect class="a" width="24" height="23.986"/></clipPath></defs><g class="b"><ellipse class="c" cx="11.375" cy="11.368" rx="11.375" ry="11.368" transform="translate(0.625 0.625)"/><g transform="translate(0 -0.006)"><path d="M8.285,10.47V9.56h5.21v6.89a1.37,1.37,0,0,0,.14.69.77.77,0,0,0,.381.33,2.537,2.537,0,0,0,.89.109h1.38v.92h-8v-.92h1.35a2.584,2.584,0,0,0,1.021-.13.832.832,0,0,0,.37-.37,3.6,3.6,0,0,0,.109-1.13v-5.47H8.286V10.47Z"/><path d="M12.1,4.5a1.519,1.519,0,0,1,1.09.43,1.406,1.406,0,0,1,.449,1.05,1.428,1.428,0,0,1-.449,1.06,1.57,1.57,0,0,1-2.18,0,1.426,1.426,0,0,1-.451-1.06,1.389,1.389,0,0,1,.451-1.05A1.536,1.536,0,0,1,12.1,4.5Z"/></g></g></svg>