<svg xmlns="http://www.w3.org/2000/svg" width="24" height="24" viewBox="0 0 24 24"><defs><style>.a,.b,.c{fill:none;stroke:#000;stroke-width:1.25px;}.b{stroke-linecap:square;}.c{stroke-linecap:round;}</style></defs><path d="M12,1.25A10.75,10.75,0,1,1,1.25,12,10.762,10.762,0,0,1,12,1.25M12,0A12,12,0,1,0,24,12,12,12,0,0,0,12,0Z"/><line class="a" x2="13" transform="translate(5.5 17)"/><line class="b" y2="3.698" transform="translate(16.5 11.302)"/><line class="b" y2="3.698" transform="translate(7.5 11.302)"/><line class="b" y2="3.698" transform="translate(10.5 11.302)"/><line class="b" y2="3.698" transform="translate(13.5 11.302)"/><line class="c" y1="4" x2="6.5" transform="translate(5.5 5)"/><line class="c" x1="6.5" y1="4" transform="translate(12 5)"/><line class="a" x2="13" transform="translate(5.5 9)"/></svg>