<?xml version="1.0" encoding="utf-8"?>
<!-- Generator: Adobe Illustrator 16.2.1, SVG Export Plug-In . SVG Version: 6.00 Build 0)  -->
<!DOCTYPE svg PUBLIC "-//W3C//DTD SVG 1.1//EN" "http://www.w3.org/Graphics/SVG/1.1/DTD/svg11.dtd">
<svg version="1.1" xmlns="http://www.w3.org/2000/svg" xmlns:xlink="http://www.w3.org/1999/xlink" x="0px" y="0px" width="24px"
	 height="24px" viewBox="0 0 24 24" enable-background="new 0 0 24 24" xml:space="preserve">
<g id="Ebene_4" display="none">
	<rect x="-200.5" y="-630.5" display="inline" fill="#F15022" stroke="#000000" stroke-miterlimit="10" width="478" height="3225"/>
</g>
<g id="Ebene_1">
	<rect x="5.493" y="11.313" transform="matrix(0.6304 -0.7762 0.7762 0.6304 -4.8796 13.7497)" width="13.015" height="1.373"/>
	<g>
		<path d="M16.434,9.216l-0.86,1.059c1.228,0.264,2.132,0.944,2.132,1.725c0,0.983-1.507,1.846-3.225,1.846
			c-0.572,0-1.113-0.102-1.591-0.266l-0.835,1.028c0.696,0.306,1.523,0.487,2.426,0.487c2.509,0,4.475-1.36,4.475-3.096
			C18.955,10.754,17.934,9.711,16.434,9.216z"/>
	</g>
	<g>
		<path d="M8.43,13.722C7.213,13.453,6.295,12.766,6.295,12c0-0.983,1.507-1.846,3.225-1.846c0.573,0,1.115,0.102,1.593,0.265
			l0.835-1.028c-0.697-0.306-1.525-0.487-2.429-0.487c-2.509,0-4.475,1.36-4.475,3.096c0,1.246,1.022,2.289,2.522,2.784L8.43,13.722
			z"/>
	</g>
	<ellipse fill="none" stroke="#000000" stroke-width="1.25" cx="12" cy="11.999" rx="11.375" ry="11.368"/>
</g>
<g id="Ebene_2">
</g>
<g id="Ebene_3">
</g>
</svg>
