<?xml version="1.0" encoding="utf-8"?>
<!-- Generator: Adobe Illustrator 16.0.0, SVG Export Plug-In . SVG Version: 6.00 Build 0)  -->
<!DOCTYPE svg PUBLIC "-//W3C//DTD SVG 1.1//EN" "http://www.w3.org/Graphics/SVG/1.1/DTD/svg11.dtd">
<svg version="1.1" id="Ebene_1" xmlns="http://www.w3.org/2000/svg" xmlns:xlink="http://www.w3.org/1999/xlink" x="0px" y="0px"
	 width="24px" height="24px" viewBox="0 0 24 24" enable-background="new 0 0 24 24" xml:space="preserve">
<g>
	<g>
		<path fill="none" stroke="#000000" stroke-width="1.25" stroke-miterlimit="10" d="M9.52,14.471c-2.13,0-3.85-1.111-3.85-2.471
			c0-1.36,1.73-2.47,3.85-2.47c2.13,0,3.86,1.11,3.86,2.47"/>
		<path fill="none" stroke="#000000" stroke-width="1.25" stroke-miterlimit="10" d="M14.48,9.53c2.129,0,3.85,1.11,3.85,2.47
			c0,1.359-1.73,2.471-3.85,2.471c-2.13,0-3.851-1.111-3.851-2.471"/>
	</g>
	<g>
		<path d="M12,1.25c5.93,0,10.75,4.82,10.75,10.75c0,5.93-4.82,10.75-10.75,10.75C6.07,22.75,1.25,17.93,1.25,12
			C1.25,6.07,6.07,1.25,12,1.25 M12,0C5.37,0,0,5.37,0,12s5.37,12,12,12s12-5.37,12-12S18.63,0,12,0L12,0z"/>
	</g>
</g>
</svg>
