<?xml version="1.0" encoding="utf-8"?>
<!-- Generator: Adobe Illustrator 16.2.1, SVG Export Plug-In . SVG Version: 6.00 Build 0)  -->
<!DOCTYPE svg PUBLIC "-//W3C//DTD SVG 1.1//EN" "http://www.w3.org/Graphics/SVG/1.1/DTD/svg11.dtd">
<svg version="1.1" xmlns="http://www.w3.org/2000/svg" xmlns:xlink="http://www.w3.org/1999/xlink" x="0px" y="0px" width="24px"
	 height="24px" viewBox="0 0 24 24" enable-background="new 0 0 24 24" xml:space="preserve">
<g id="Ebene_4" display="none">
	
		<rect x="-200.5" y="-2660.5" display="inline" fill="#F15022" stroke="#000000" stroke-miterlimit="10" width="478" height="3225"/>
</g>
<g id="Ebene_1">
	<g>
		<path d="M11.017,14.329c-0.307-0.13-0.575-0.311-0.805-0.54c-0.23-0.23-0.411-0.498-0.542-0.805
			C9.539,12.679,9.474,12.351,9.474,12s0.065-0.68,0.196-0.985c0.131-0.308,0.312-0.573,0.542-0.804
			c0.229-0.229,0.498-0.41,0.805-0.541c0.305-0.13,0.633-0.195,0.984-0.195c0.35,0,0.678,0.065,0.984,0.195
			c0.307,0.131,0.574,0.312,0.805,0.541c0.229,0.23,0.408,0.496,0.54,0.804c0.13,0.306,0.196,0.635,0.196,0.985
			s-0.066,0.679-0.196,0.984c-0.132,0.307-0.312,0.574-0.54,0.805c-0.23,0.229-0.498,0.41-0.805,0.54
			c-0.307,0.131-0.635,0.196-0.984,0.196C11.649,14.525,11.321,14.46,11.017,14.329 M10.599,8.685
			C10.161,8.873,9.78,9.13,9.455,9.455s-0.582,0.706-0.771,1.144C8.496,11.035,8.403,11.503,8.403,12s0.093,0.965,0.281,1.401
			s0.445,0.817,0.771,1.144c0.325,0.324,0.706,0.582,1.144,0.771s0.904,0.281,1.402,0.281c0.496,0,0.965-0.093,1.4-0.281
			c0.438-0.188,0.818-0.446,1.144-0.771c0.325-0.326,0.581-0.707,0.771-1.144c0.188-0.437,0.281-0.904,0.281-1.401
			s-0.094-0.965-0.281-1.401c-0.189-0.438-0.445-0.818-0.771-1.144s-0.706-0.582-1.144-0.771c-0.436-0.188-0.904-0.281-1.4-0.281
			C11.503,8.403,11.036,8.496,10.599,8.685 M20.399,14.315l-0.822,1.989l-2.592-0.602c-0.205,0.241-0.408,0.466-0.613,0.674
			c-0.204,0.207-0.427,0.41-0.67,0.607l0.603,2.593l-1.989,0.822l-1.406-2.257c-0.152,0.013-0.305,0.024-0.455,0.038
			c-0.15,0.013-0.301,0.019-0.453,0.019c-0.146,0-0.297-0.006-0.451-0.019c-0.152-0.014-0.303-0.025-0.449-0.038l-1.416,2.257
			l-1.989-0.822l0.602-2.593c-0.241-0.203-0.466-0.408-0.675-0.612c-0.206-0.203-0.409-0.428-0.606-0.669l-2.593,0.602l-0.822-1.989
			l2.257-1.407c-0.012-0.146-0.024-0.296-0.037-0.449S5.8,12.156,5.8,12.009c0-0.152,0.008-0.304,0.021-0.454
			c0.013-0.149,0.025-0.301,0.037-0.454L3.601,9.685l0.822-1.99l2.593,0.603C7.22,8.056,7.423,7.83,7.628,7.623
			c0.204-0.207,0.428-0.41,0.669-0.607L7.695,4.423l1.989-0.822l1.406,2.257c0.153-0.013,0.305-0.025,0.455-0.038
			s0.301-0.02,0.455-0.02c0.146,0,0.296,0.007,0.449,0.02c0.152,0.013,0.303,0.025,0.449,0.038l1.416-2.257l1.989,0.822
			l-0.603,2.593c0.243,0.203,0.468,0.407,0.676,0.612c0.207,0.203,0.41,0.428,0.607,0.669l2.592-0.603l0.822,1.99l-2.257,1.406
			c0.013,0.146,0.025,0.297,0.038,0.45c0.013,0.152,0.02,0.303,0.02,0.45c0,0.152-0.007,0.304-0.02,0.453s-0.025,0.301-0.038,0.454
			L20.399,14.315z M21.739,10.115l-1.521-3.664l-2.841,0.65c-0.154-0.166-0.312-0.325-0.48-0.479l0.65-2.842l-3.662-1.521
			l-1.542,2.478c-0.058,0-0.113-0.001-0.171-0.005c-0.057-0.003-0.115-0.004-0.172-0.004c-0.058,0-0.115,0.001-0.174,0.004
			c-0.057,0.004-0.113,0.005-0.171,0.005l-1.541-2.478L6.451,3.781l0.65,2.842C6.936,6.776,6.776,6.936,6.622,7.102l-2.84-0.65
			l-1.521,3.664l2.478,1.54c0,0.057-0.001,0.114-0.005,0.172C4.731,11.885,4.729,11.942,4.729,12c0,0.057,0.002,0.115,0.004,0.172
			c0.004,0.058,0.005,0.114,0.005,0.172l-2.478,1.541l1.521,3.663l2.84-0.649c0.154,0.166,0.313,0.325,0.479,0.479l-0.65,2.842
			l3.664,1.521l1.541-2.478c0.058,0,0.114,0.001,0.171,0.005c0.059,0.003,0.116,0.004,0.174,0.004c0.057,0,0.115-0.001,0.172-0.004
			c0.058-0.004,0.113-0.005,0.171-0.005l1.542,2.478l3.662-1.521l-0.65-2.842c0.168-0.153,0.326-0.312,0.48-0.479l2.841,0.649
			l1.521-3.663l-2.477-1.541c0-0.058,0-0.114,0.004-0.172c0.003-0.057,0.005-0.115,0.005-0.172c0-0.058-0.002-0.115-0.005-0.173
			c-0.004-0.058-0.004-0.115-0.004-0.172L21.739,10.115z"/>
	</g>
</g>
<g id="Ebene_2">
</g>
<g id="Ebene_3">
</g>
</svg>
